<?xml version="1.0" encoding="utf-8"?>
<!-- Generator: Adobe Illustrator 19.1.1, SVG Export Plug-In . SVG Version: 6.00 Build 0)  -->
<svg version="1.1" id="Calque_1" xmlns="http://www.w3.org/2000/svg" xmlns:xlink="http://www.w3.org/1999/xlink" x="0px" y="0px"
	 viewBox="0 0 425.2 283.5" style="enable-background:new 0 0 425.2 283.5;" xml:space="preserve">
<style type="text/css">
	.st0{fill:#DAA628;}
	.st1{fill:none;}
	.st2{font-family:'GreatVibes-Regular';}
	.st3{font-size:41.4889px;}
</style>
<g>
	<g>
		<g>
			<g>
				<g>
					<g>
						<g>
							<path class="st0" d="M190.6,99.5c0,0-1.1-1.1-2.8-3c-0.6-1.2-1.8-2.3-2.3-4c-0.3-0.8-0.8-1.6-0.9-2.6c-0.2-0.9-0.4-1.9-0.7-3
								c0-1-0.1-2.1,0-3.3c0.1-1.1,0.3-2.2,0.5-3.4c0.5-1.1,0.9-2.3,1.3-3.4c0.7-1,1.3-2.3,2-3.1L189,72c0.5-0.4,0.9-0.6,1.4-1
								c0.4-0.4,1.1-0.6,1.6-0.8c0.6-0.4,1.2-0.6,1.8-0.7c2.4-0.8,5.1-0.7,7.5,0.3c2.4,0.9,4.5,2.6,5.4,4.7c1,2.2,0.9,4.7-0.1,6.8
								c-1,2.2-2.7,3.2-4.9,3.5c-1-0.1-2-0.2-2.9-0.7l-0.3-0.1c0.1,0.1-0.2-0.2-0.3-0.2c-0.2-0.2-0.5-0.4-0.6-0.5
								c-0.2-0.3-0.5-0.5-0.7-1c-0.7-1.6-0.4-3.5,0.7-4.6c1.1-1.1,2.6-0.9,3.5-0.5c1.3,0.8,1.2,1.6,1.3,2.4c-0.2,0.7-0.3,1-0.3,1
								s0.1-0.3,0.5-1c0-0.4,0.2-0.8,0-1.4c-0.1-0.7-0.5-1.2-0.9-1.6c-0.8-0.4-1.4-1-2.3-1c-0.9-0.2-2.2,0.3-3,0.8
								c-1.7,1.1-2.8,3.9-1.9,6.6c0.2,0.7,0.5,1.3,1.1,2c0.3,0.3,0.4,0.4,0.7,0.7c0.2,0.1,0.1,0.1,0.5,0.4l0.5,0.3
								c1.2,0.9,2.7,1.2,4.3,1.4c1.6,0,3.2-0.4,4.7-1.2c0.8-0.5,1.7-1.2,2-1.7c0.3-0.4,0.4-0.3,0.8-1l0.6-1.1
								c1.7-2.9,2.1-6.8,0.6-10.1c-1.4-3.5-4.4-5.8-7.7-7c-3.2-1.3-6.9-1.3-10.1-0.3c-0.9,0.2-1.6,0.6-2.3,1
								c-0.7,0.4-1.5,0.7-2.2,1.3c-0.7,0.6-1.4,1.2-2,1.7l-1.4,1.7c-1.1,1.5-1.6,2.7-2.2,4.1c-0.6,1.4-0.8,2.8-1.2,4.1
								c-0.1,1.4-0.2,2.7-0.3,4.1c0.2,1.2,0.3,2.6,0.5,3.7c0.4,1.2,0.7,2.3,1.1,3.2c0.4,1,1.1,1.9,1.5,2.7c0.9,1.6,2.3,2.8,3.1,3.7
								c1,0.9,2,1.4,2.5,1.9C190.3,99.2,190.6,99.5,190.6,99.5z"/>
							<path class="st0" d="M232.9,99.5c0,0,1.1-1.1,2.8-3c0.6-1.2,1.7-2.3,2.3-4c0.3-0.8,0.8-1.6,0.9-2.6c0.2-0.9,0.4-1.9,0.7-3
								c0-1,0.1-2.1,0-3.3c-0.1-1.1-0.3-2.2-0.5-3.4c-0.5-1.1-0.8-2.3-1.3-3.4c-0.7-1-1.3-2.3-2-3.1l-1.4-1.6
								c-0.5-0.4-0.9-0.6-1.4-1c-0.4-0.4-1.1-0.6-1.6-0.8c-0.6-0.4-1.2-0.6-1.8-0.7c-2.4-0.8-5.1-0.7-7.5,0.3
								c-2.4,0.9-4.5,2.6-5.4,4.7c-0.9,2.2-0.9,4.7,0.1,6.8c1,2.2,2.7,3.2,4.9,3.5c1-0.1,2-0.2,2.9-0.7l0.3-0.1
								c-0.1,0.1,0.2-0.2,0.3-0.2c0.2-0.2,0.5-0.4,0.6-0.5c0.2-0.3,0.5-0.5,0.7-1c0.7-1.6,0.4-3.5-0.7-4.6c-1.1-1.1-2.6-0.9-3.5-0.5
								c-1.3,0.8-1.2,1.6-1.3,2.4c0.2,0.7,0.3,1,0.3,1s-0.1-0.3-0.5-1c0-0.4-0.2-0.8,0-1.4c0.1-0.7,0.5-1.2,0.9-1.6
								c0.8-0.4,1.4-1,2.3-1c0.9-0.2,2.3,0.3,3,0.8c1.7,1.1,2.8,3.9,1.8,6.6c-0.2,0.7-0.5,1.3-1.1,2c-0.3,0.3-0.4,0.4-0.7,0.7
								c-0.2,0.1-0.1,0.1-0.5,0.4l-0.5,0.3c-1.2,0.9-2.7,1.2-4.3,1.4c-1.6,0-3.3-0.4-4.7-1.2c-0.8-0.5-1.7-1.2-2-1.7
								c-0.3-0.4-0.4-0.3-0.8-1l-0.6-1.1c-1.7-2.9-2.1-6.8-0.6-10.1c1.5-3.5,4.4-5.8,7.7-7c3.3-1.3,6.9-1.3,10.1-0.3
								c0.8,0.2,1.6,0.6,2.3,1c0.8,0.4,1.5,0.7,2.2,1.3c0.7,0.6,1.4,1.2,2,1.7l1.4,1.7c1.1,1.5,1.6,2.7,2.2,4.1
								c0.6,1.4,0.8,2.8,1.2,4.1c0.1,1.4,0.2,2.7,0.3,4.1c-0.2,1.2-0.3,2.6-0.5,3.7c-0.4,1.2-0.7,2.3-1.1,3.2
								c-0.4,1-1.1,1.9-1.5,2.7c-0.9,1.6-2.3,2.8-3.1,3.7c-1.1,0.9-2,1.4-2.5,1.9C233.2,99.2,232.9,99.5,232.9,99.5z"/>
						</g>
						<path class="st0" d="M220,95.1c-2.3-1.5-4.7-4.4-6.7-7.7c0.4-1.3-0.9-1.6-0.9-1.6c-0.5-0.9-1.2,1.4-1.2,1.4l-1.3,1.6
							c-1.8,2.7-3.7,4.8-5.3,5.9c-6.2,5-13,4.7-12.9,6.1c0,0.5,1.4,0.9,4,0.9c2.5-0.1,6.4-0.8,10.3-3.5c2.3-1.5,4.2-4.1,5.7-7.2
							c1.6,2.9,3.5,5.4,5.4,6.6c1.8,1.6,3.9,2.3,5.7,3.2c1.9,0.4,3.6,0.9,5,1c2.8,0.1,4.4-0.2,4.5-0.7
							C232.4,99.6,226.5,99.6,220,95.1z"/>
						<path class="st0" d="M115.7,83.4c1.6,1.5,3.2,4.4,4.6,7.7c-0.3,1.3,0.6,1.6,0.6,1.6c0.3,0.9,0.8-1.4,0.8-1.4l0.9-1.6
							c1.2-2.7,2.5-4.8,3.6-5.9c4.2-5,8.9-4.7,8.7-6.1c0-0.5-0.9-0.8-2.7-0.9c-1.7,0.1-4.4,0.8-7,3.5c-1.5,1.5-2.9,4.1-3.9,7.2
							c-1.1-2.9-2.4-5.4-3.6-6.6c-1.2-1.6-2.6-2.3-3.8-3.2c-1.3-0.4-2.4-0.9-3.4-1c-1.9-0.1-3,0.2-3,0.7
							C107.3,79,111.2,79,115.7,83.4z"/>
						<path class="st0" d="M296.9,83.4c1.6,1.5,3.2,4.4,4.5,7.7c-0.3,1.3,0.6,1.6,0.6,1.6c0.3,0.9,0.8-1.4,0.8-1.4l0.9-1.6
							c1.2-2.7,2.5-4.8,3.6-5.9c4.2-5,8.9-4.7,8.7-6.1c0-0.5-0.9-0.8-2.7-0.9c-1.7,0.1-4.4,0.8-7,3.5c-1.5,1.5-2.9,4.1-3.9,7.2
							c-1.1-2.9-2.4-5.4-3.6-6.6c-1.2-1.6-2.6-2.3-3.9-3.2c-1.3-0.4-2.4-0.9-3.4-1c-1.9-0.1-3,0.2-3,0.7
							C288.5,79,292.5,79,296.9,83.4z"/>
						<polygon class="st0" points="211.8,23.2 221,11.6 211.8,0 202.5,11.6 						"/>
						<path class="st0" d="M209.1,23.3c0,0-0.8-1.4-2.5-3.7c-1.1-0.9-2-2.4-3.7-3.4c-0.7-0.5-1.5-1.2-2.5-1.6
							c-0.9-0.4-1.9-0.9-2.9-1.4c-1.1-0.3-2.2-0.6-3.4-0.8c-1.2-0.1-2.4-0.2-3.7-0.3c-1.3,0.2-2.6,0.3-3.9,0.5
							c-1.2,0.5-2.7,0.8-3.8,1.3l-2,1.1c-0.5,0.4-0.8,0.8-1.4,1.2c-0.5,0.4-0.8,1-1.3,1.5c-0.5,0.5-0.9,1.1-1.1,1.7
							c-1.4,2.3-2,5.2-1.5,7.9c0.3,2.7,1.6,5.4,3.6,6.7c2,1.5,4.7,2.1,7.1,1.5c2.5-0.5,4-2.1,4.8-4.2c0.1-1.1,0.3-2.2-0.1-3.2
							l-0.1-0.4c0.1,0.1-0.1-0.2-0.2-0.3c-0.1-0.2-0.3-0.7-0.4-0.8c-0.2-0.3-0.4-0.6-0.8-0.9c-1.5-1.1-3.6-1.3-4.9-0.3
							c-1.4,0.8-1.6,2.5-1.3,3.6c0.5,1.5,1.4,1.7,2.2,1.9c0.7-0.1,1.1-0.1,1.1-0.1s-0.3,0.1-1.1,0.3c-0.3-0.1-0.9,0-1.4-0.3
							c-0.7-0.3-1.1-0.8-1.5-1.3c-0.2-0.9-0.7-1.7-0.5-2.7c0-1,0.9-2.3,1.6-2.9c1.6-1.5,4.8-2,7.4-0.3c0.6,0.3,1.2,0.9,1.8,1.6
							c0.2,0.4,0.3,0.6,0.6,0.9c0,0.2,0.1,0.1,0.3,0.6l0.2,0.6c0.7,1.4,0.6,3.1,0.4,4.8c-0.4,1.7-1.2,3.3-2.3,4.6
							c-0.7,0.7-1.7,1.5-2.2,1.7c-0.5,0.2-0.4,0.3-1.3,0.6l-1.3,0.4c-3.5,1-7.6,0.6-10.7-1.7c-3.4-2.3-5-6-5.5-9.7
							c-0.5-3.7,0.3-7.5,2.1-10.6c0.4-0.8,1-1.6,1.6-2.2c0.6-0.7,1.1-1.4,1.9-2c0.8-0.6,1.6-1.2,2.2-1.7l2.1-1
							c1.8-0.8,3.2-1,4.8-1.4c1.6-0.2,3.1-0.2,4.6-0.3c1.5,0.2,2.9,0.4,4.4,0.7c1.2,0.5,2.6,1,3.8,1.4c1.1,0.6,2.2,1.3,3.1,1.9
							c0.9,0.7,1.7,1.6,2.5,2.2c1.5,1.3,2.3,3.1,3.2,4.2c0.6,1.3,1,2.4,1.4,3.1C209,22.9,209.1,23.3,209.1,23.3z"/>
						<path class="st0" d="M214.8,23.3c0,0,0.9-1.4,2.5-3.7c1.1-0.9,1.9-2.4,3.6-3.4c0.8-0.5,1.5-1.2,2.5-1.6
							c0.9-0.4,1.9-0.9,2.9-1.4c1-0.3,2.2-0.6,3.4-0.8c1.2-0.1,2.4-0.2,3.7-0.3c1.3,0.2,2.6,0.3,3.9,0.5c1.2,0.5,2.7,0.8,3.7,1.3
							l2,1.1c0.5,0.4,0.9,0.8,1.4,1.2c0.5,0.4,0.9,1,1.3,1.5c0.5,0.5,0.9,1.1,1.1,1.7c1.4,2.3,2,5.2,1.5,7.9
							c-0.3,2.7-1.6,5.4-3.6,6.7c-2.1,1.5-4.7,2.1-7.1,1.5c-2.5-0.5-4-2.1-4.8-4.2c-0.2-1.1-0.3-2.2,0-3.2l0.1-0.4
							c-0.1,0.1,0.1-0.2,0.2-0.3c0.1-0.2,0.2-0.7,0.4-0.8c0.2-0.3,0.4-0.6,0.8-0.9c1.5-1.1,3.6-1.3,4.9-0.3c1.4,0.8,1.6,2.5,1.3,3.6
							c-0.5,1.5-1.4,1.7-2.2,1.9c-0.8-0.1-1.1-0.1-1.1-0.1s0.3,0.1,1.1,0.3c0.4-0.1,0.9,0,1.4-0.3c0.7-0.3,1.2-0.8,1.5-1.3
							c0.3-0.9,0.7-1.7,0.5-2.7c0-1-0.9-2.3-1.6-2.9c-1.6-1.5-4.8-2-7.3-0.3c-0.7,0.3-1.3,0.9-1.8,1.6c-0.2,0.4-0.3,0.6-0.5,0.9
							c-0.1,0.2-0.1,0.1-0.3,0.6l-0.2,0.6c-0.7,1.4-0.6,3.1-0.4,4.8c0.3,1.7,1.2,3.3,2.3,4.6c0.7,0.7,1.7,1.5,2.2,1.7
							c0.5,0.2,0.4,0.3,1.3,0.6l1.3,0.4c3.4,1,7.6,0.6,10.7-1.7c3.4-2.3,5-6,5.5-9.7c0.5-3.7-0.3-7.5-2.1-10.6
							c-0.4-0.8-1-1.6-1.5-2.2c-0.6-0.7-1.1-1.4-1.9-2c-0.8-0.6-1.6-1.2-2.2-1.7l-2.1-1c-1.8-0.8-3.2-1-4.8-1.4
							c-1.5-0.2-3.1-0.2-4.6-0.3c-1.5,0.2-2.9,0.4-4.3,0.7c-1.3,0.5-2.6,1-3.8,1.4c-1.1,0.6-2.2,1.3-3.1,1.9
							c-0.9,0.7-1.7,1.6-2.5,2.2c-1.5,1.3-2.3,3.1-3.2,4.2c-0.6,1.3-1,2.4-1.4,3.1C215,22.9,214.8,23.3,214.8,23.3z"/>
						<g>
							<path class="st0" d="M178.6,43.5c-0.2,0.4-1.5,0.1-3.5-0.8c-1-0.5-2.1-1.4-3.4-2.2c-1.1-1.1-2.4-2.4-3.2-4
								c-1.1-1.6-1.8-4.2-2.1-7.1c-0.2-2.9,0.3-6,1.1-8.6c1.6-5.4,4.2-9.1,4-8.8c-1.8,2.8-3.2,7.4-3.3,12c-0.2,4.7,1.4,9,3.1,11.5
								C174.8,40.7,179.1,42.5,178.6,43.5z"/>
						</g>
						<g>
							<path class="st0" d="M245.6,43.5c0.2,0.4,1.5,0.1,3.5-0.8c1-0.5,2.1-1.4,3.3-2.2c1.1-1.1,2.4-2.4,3.2-4
								c1.1-1.6,1.8-4.2,2.1-7.1c0.2-2.9-0.3-6-1.1-8.6c-1.6-5.4-4.3-9.1-4-8.8c1.8,2.8,3.2,7.4,3.3,12c0.1,4.7-1.4,9-3.1,11.5
								C249.4,40.7,245.1,42.5,245.6,43.5z"/>
						</g>
						<g>
							<path class="st0" d="M187.9,58.7c-0.2,0.8-0.5,1.8-0.8,2.7c-2,3.8-6,6.5-10.3,7.3c-1.8,0.2-3.5,0.2-5.2-0.3
								c-0.3,0-0.5-0.2-0.7-0.2c0.7-0.2,1.2-0.5,1.8-0.7c4.3,0.5,8.3-1.2,11-3.8c1.2-1,1.8-2.3,2.3-3.6c1-2.3,0.8-4.8,0.3-6.8
								c-1-3-3.3-5.5-6-6.3c-2.8-1-5.8-0.3-7.8,1.3c-2,1.7-3,4.2-2.5,6.5c0.5,2.3,2.2,4,3.8,4.7c1.8,0.7,3.6,0.2,5-0.7
								c1.2-1,1.7-2.3,1.7-3.3c0.2-2-0.8-3-0.7-3c0.2,0,0.3,0.2,0.3,0.3c0.3,0.5,0.8,1.3,0.8,2.3c0.2,1,0,2.5-1,3.7
								c-1.2,1.2-2.8,2-5.1,1.8c-2,0-4.2-1.3-5.2-3.8c-1.3-2.2-1.5-5.2,0.5-7.6c1.5-2.5,4.5-4,7.8-4c3.3,0,6.6,2,8.5,5.2
								C187.9,52.7,188.4,55.7,187.9,58.7z"/>
						</g>
						<g>
							<path class="st0" d="M235.4,58.7c0.2,0.8,0.5,1.8,0.8,2.7c2,3.8,6,6.5,10.3,7.3c1.8,0.2,3.5,0.2,5.1-0.3
								c0.3,0,0.5-0.2,0.7-0.2c-0.7-0.2-1.1-0.5-1.8-0.7c-4.3,0.5-8.3-1.2-11-3.8c-1.2-1-1.8-2.3-2.3-3.6c-1-2.3-0.8-4.8-0.3-6.8
								c1-3,3.4-5.5,6-6.3c2.8-1,5.8-0.3,7.8,1.3c2,1.7,3,4.2,2.5,6.5c-0.5,2.3-2.2,4-3.8,4.7c-1.8,0.7-3.6,0.2-5-0.7
								c-1.2-1-1.7-2.3-1.7-3.3c-0.1-2,0.8-3,0.7-3c-0.2,0-0.3,0.2-0.3,0.3c-0.3,0.5-0.8,1.3-0.8,2.3c-0.2,1,0,2.5,1,3.7
								c1.2,1.2,2.8,2,5.1,1.8c2,0,4.2-1.3,5.1-3.8c1.3-2.2,1.5-5.2-0.5-7.6c-1.5-2.5-4.5-4-7.8-4c-3.3,0-6.6,2-8.5,5.2
								C235.4,52.7,234.9,55.7,235.4,58.7z"/>
						</g>
						<g>
							<g>
								<path class="st0" d="M198.5,55.8c-5.1,7.5-13.3,12.9-22.1,16.9c-8.8,3.8-17.9,5.8-25.9,7.5c-7.5,1.7-14.1,4.5-18,8.8
									c-4.2,4.3-5.3,9.3-5.5,12.6c-0.2,1.7,0,3,0.2,4c0,0.8,0.2,1.3,0.2,1.3c0-0.3-0.7-2.2-1-5.3c-0.3-3.3,0-9,3.8-14.4
									c3.8-5.5,11-9.6,19-12c4.3-1.3,8.8-2.5,13.3-4c0.3-0.2,0.7-0.2,0.8-0.3c2.5-0.8,5.1-1.8,7.6-2.8c0.7-0.2,1.2-0.5,1.8-0.7
									c0.3-0.2,0.8-0.3,1.2-0.5c3.3-1.5,6.5-3.2,9.5-5v-0.2c0.3,0,0.8-0.3,1.2-0.7c0.5-0.3,1-0.7,1.5-1.2c0.7-0.3,1.3-0.8,1.8-1.3
									c2.3-1.8,4.5-3.8,6.2-6c4.6-5.8,5.3-13,4.3-18.8c-0.5-2.8-1.2-5.5-2.2-7.6c-0.8-2.3-1.7-4.2-2.5-5.7c-1.2-2.2-2-3.8-2.3-4.5
									c0.5,0.5,1.5,2,3.1,4c1.2,1.3,2.3,3.1,3.5,5.3c1.3,2.2,2.3,4.8,3.5,7.8C203.3,39.2,203.5,48.2,198.5,55.8z"/>
							</g>
						</g>
						<g>
							<g>
								<path class="st0" d="M232.3,15.8c0,0-0.9,1.8-2.5,4.8c-0.9,1.5-1.7,3.4-2.5,5.7c-1,2.2-1.6,4.9-2.2,7.7
									c-0.9,5.8-0.4,12.9,4.3,18.8c4.6,5.9,11.9,10.5,20.2,14.2c8.4,3.6,16.7,5.9,24.7,8.3c8,2.4,15.2,6.6,18.9,12.1
									c3.9,5.4,4.2,11,3.9,14.4c-0.4,3.5-1.2,5.2-1.1,5.3c0,0,0.2-0.5,0.3-1.4c0.1-0.9,0.2-2.3,0.1-4c-0.2-3.3-1.4-8.4-5.4-12.6
									c-3.8-4.3-10.5-7.2-18.1-8.9c-7.8-1.6-17-3.6-25.8-7.5c-8.9-3.9-17-9.4-22-16.9c-5.1-7.6-4.9-16.5-3-22.5
									c1.1-3.1,2.1-5.7,3.5-7.9c1.2-2.2,2.3-4,3.5-5.3C231,17.4,232.3,15.8,232.3,15.8z"/>
							</g>
						</g>
						<path class="st0" d="M303.9,105.6c0,0,1.4,0.9,3.9,2.2c1.4,0.4,2.8,1.3,4.7,1.5c0.9,0.1,1.8,0.5,2.9,0.4c1,0,2.1-0.1,3.2,0
							c1.1-0.2,2.2-0.4,3.5-0.7c1.1-0.4,2.2-0.9,3.5-1.3c1.1-0.8,2.2-1.4,3.2-2.2c0.8-0.9,2.1-1.9,2.8-2.8l1.4-1.8
							c0.3-0.6,0.4-1.2,0.7-1.7c0.3-0.5,0.4-1.2,0.5-1.9c0.3-0.7,0.4-1.4,0.3-2c0.2-2.7-0.5-5.5-2.1-7.7c-1.5-2.3-3.8-4.1-6.2-4.5
							c-2.5-0.5-5.1,0.2-7,1.7c-2,1.5-2.7,3.6-2.5,5.9c0.3,1,0.7,2.1,1.4,2.8l0.2,0.3c-0.2-0.1,0.2,0.2,0.3,0.2
							c0.2,0.2,0.5,0.5,0.7,0.5c0.3,0.2,0.7,0.4,1.1,0.5c1.8,0.4,3.9-0.4,4.6-1.8c0.9-1.3,0.3-3-0.4-3.8c-1.1-1.2-2-0.9-2.8-0.8
							c-0.7,0.4-0.9,0.5-0.9,0.5s0.3-0.2,0.9-0.8c0.4-0.1,0.8-0.4,1.4-0.4c0.7-0.1,1.4,0.2,1.9,0.5c0.6,0.7,1.4,1.2,1.6,2.2
							c0.4,0.9,0.2,2.4-0.2,3.3c-0.8,2.1-3.5,3.9-6.5,3.5c-0.7,0-1.5-0.2-2.3-0.7c-0.4-0.2-0.5-0.4-0.9-0.5c-0.1-0.2-0.1,0-0.5-0.4
							l-0.4-0.4c-1.3-1-2-2.5-2.5-4.2c-0.4-1.7-0.3-3.5,0.1-5.1c0.3-0.9,0.8-2.1,1.2-2.5c0.4-0.4,0.3-0.5,0.9-1.1l1-0.9
							c2.6-2.4,6.6-3.8,10.4-3.1c4,0.6,7.1,3.2,9.1,6.3c2.1,3.1,3,6.9,2.7,10.5c0,0.9-0.2,1.8-0.4,2.7c-0.3,0.9-0.4,1.7-0.9,2.6
							c-0.5,0.9-0.9,1.7-1.3,2.5l-1.5,1.8c-1.3,1.5-2.4,2.3-3.7,3.3c-1.3,0.9-2.7,1.5-4,2.2c-1.4,0.4-2.8,0.9-4.2,1.3
							c-1.3,0.1-2.8,0.3-4,0.3c-1.3-0.1-2.5-0.2-3.6-0.3c-1.1-0.2-2.2-0.7-3.2-0.9c-1.9-0.5-3.4-1.8-4.7-2.4
							c-1.1-0.9-1.9-1.7-2.6-2.1C304.2,105.9,303.9,105.6,303.9,105.6z"/>
						<path class="st0" d="M120.8,105.6c0,0-1.4,0.9-3.9,2.2c-1.4,0.4-2.8,1.3-4.7,1.5c-0.9,0.1-1.9,0.5-3,0.4c-1,0-2.1-0.1-3.2,0
							c-1.1-0.2-2.2-0.4-3.5-0.7c-1.2-0.4-2.2-0.9-3.5-1.3c-1.1-0.8-2.2-1.4-3.2-2.2c-0.9-0.9-2.1-1.9-2.8-2.8l-1.3-1.8
							c-0.3-0.6-0.4-1.2-0.7-1.7c-0.3-0.5-0.3-1.2-0.5-1.9c-0.3-0.7-0.3-1.4-0.3-2c-0.2-2.7,0.5-5.5,2.1-7.7
							c1.5-2.3,3.8-4.1,6.2-4.5c2.5-0.5,5.1,0.2,7,1.7c2.1,1.5,2.7,3.6,2.5,5.9c-0.3,1-0.7,2.1-1.4,2.8l-0.2,0.3
							c0.2-0.1-0.2,0.2-0.3,0.2c-0.2,0.2-0.6,0.5-0.7,0.5c-0.3,0.2-0.7,0.4-1.2,0.5c-1.8,0.4-3.8-0.4-4.6-1.8
							c-0.9-1.3-0.3-3,0.3-3.8c1.2-1.2,2-0.9,2.8-0.8c0.6,0.4,0.9,0.5,0.9,0.5s-0.3-0.2-0.9-0.8c-0.4-0.1-0.8-0.4-1.4-0.4
							c-0.8-0.1-1.4,0.2-1.9,0.5c-0.6,0.7-1.4,1.2-1.6,2.2c-0.4,0.9-0.2,2.4,0.2,3.3c0.7,2.1,3.4,3.9,6.4,3.5c0.7,0,1.5-0.2,2.3-0.7
							c0.4-0.2,0.6-0.4,0.9-0.5c0.1-0.2,0.2,0,0.5-0.4l0.4-0.4c1.2-1,1.9-2.5,2.5-4.2c0.4-1.7,0.4-3.5-0.1-5.1
							c-0.3-0.9-0.8-2.1-1.3-2.5c-0.4-0.4-0.3-0.5-0.9-1.1l-1-0.9c-2.6-2.4-6.6-3.8-10.4-3.1c-4,0.6-7.1,3.2-9.1,6.3
							c-2.1,3.1-3,6.9-2.7,10.5c0,0.9,0.2,1.8,0.4,2.7c0.3,0.9,0.4,1.7,0.9,2.6c0.5,0.9,0.9,1.7,1.3,2.5l1.5,1.8
							c1.3,1.5,2.4,2.3,3.7,3.3c1.3,0.9,2.7,1.5,4,2.2c1.4,0.4,2.8,0.9,4.2,1.3c1.3,0.1,2.8,0.3,4,0.3c1.3-0.1,2.5-0.2,3.6-0.3
							c1.2-0.2,2.2-0.7,3.2-0.9c1.9-0.5,3.5-1.8,4.7-2.4c1.1-0.9,1.9-1.7,2.6-2.1C120.5,105.9,120.8,105.6,120.8,105.6z"/>
						<g>
							<path class="st0" d="M82.7,91.3c-0.4-0.1-0.5-1.2-0.3-3.2c0.1-1,0.5-2.2,0.9-3.5c0.6-1.2,1.3-2.7,2.5-3.9
								c1-1.4,3.1-2.8,5.4-3.8c2.4-1,5.2-1.4,7.7-1.6c5-0.2,8.9,1,8.6,0.9c-2.9-0.7-7.3-0.6-11.2,0.7c-4,1.2-7.2,3.8-8.9,6
								C83.9,87.3,83.7,91.4,82.7,91.3z"/>
						</g>
						<g>
							<path class="st0" d="M341.6,91.8c0.4,0,0.4-1.2,0.3-3.2c-0.1-1-0.6-2.2-0.9-3.5c-0.7-1.2-1.3-2.7-2.5-3.9
								c-1-1.4-3-2.8-5.4-3.8c-2.4-1-5.1-1.4-7.7-1.6c-5-0.2-8.9,1-8.6,0.9c2.9-0.7,7.2-0.6,11.2,0.7c4,1.2,7.2,3.7,8.9,6
								C340.3,87.8,340.5,91.9,341.6,91.8z"/>
						</g>
						<g>
							<path class="st0" d="M196.5,62.7c0.2,0.4,1.4,0.1,3.5-0.8c1-0.5,2.1-1.3,3.3-2.2c1.1-1.1,2.4-2.4,3.2-4
								c1.1-1.6,1.8-4.2,2.1-7.1c0.2-2.9-0.3-5.9-1.1-8.6c-1.6-5.4-4.3-9.1-4-8.8c1.8,2.8,3.2,7.4,3.3,12c0.2,4.7-1.4,9-3.1,11.5
								C200.2,59.9,195.9,61.7,196.5,62.7z"/>
						</g>
						<g>
							<path class="st0" d="M227.9,62.7c-0.2,0.4-1.5,0.1-3.5-0.8c-1-0.5-2.1-1.3-3.3-2.2c-1.1-1.1-2.4-2.4-3.2-4
								c-1.1-1.6-1.8-4.2-2.1-7.1c-0.2-2.9,0.3-5.9,1.1-8.6c1.6-5.4,4.2-9.1,4-8.8c-1.8,2.8-3.2,7.4-3.3,12c-0.2,4.7,1.4,9,3.1,11.5
								C224.1,59.9,228.5,61.7,227.9,62.7z"/>
						</g>
						<g>
							<g>
								<path class="st0" d="M104.3,121.2c9,1,18.5-1.5,27.3-5.5c8.7-4.1,16.2-9.7,22.7-14.6c6.2-4.5,12.7-7.7,18.4-7.7
									c6-0.3,10.5,2.1,13.1,4.2c1.4,0.9,2.3,2,2.9,2.8c0.6,0.5,0.9,1,0.9,1c-0.2-0.2-1.2-1.9-3.3-4.3c-2.3-2.4-6.7-5.9-13.4-6.7
									c-6.6-0.7-14.5,1.9-21.5,6.4c-3.9,2.4-7.7,5-11.8,7.4c-0.3,0.1-0.5,0.4-0.8,0.4c-2.3,1.3-4.8,2.7-7.2,3.9
									c-0.5,0.4-1.1,0.5-1.7,0.9c-0.4,0.2-0.8,0.4-1.2,0.6c-3.3,1.5-6.6,2.8-10,3.8l-0.1-0.1c-0.2,0.2-0.8,0.4-1.3,0.4
									c-0.6,0.2-1.2,0.3-1.9,0.4c-0.7,0.3-1.5,0.4-2.2,0.5c-2.9,0.5-5.9,0.9-8.6,0.7c-7.5-0.3-13.2-4.6-17-9.1
									c-1.8-2.2-3.4-4.5-4.3-6.7c-1.2-2.1-2-4-2.6-5.6c-0.8-2.3-1.6-4-1.8-4.7c0.1,0.7,0.5,2.4,0.9,5c0.2,1.8,0.8,3.8,1.7,6.1
									c0.8,2.4,2.1,4.9,3.6,7.8C88.7,113.9,95.3,120,104.3,121.2z"/>
							</g>
						</g>
						<g>
							<g>
								<path class="st0" d="M320.1,121.2c-9,1-18.5-1.5-27.3-5.5c-8.7-4.1-16.2-9.7-22.7-14.6c-6.2-4.5-12.7-7.7-18.4-7.7
									c-6-0.3-10.5,2.1-13.1,4.2c-1.4,0.9-2.3,2-2.9,2.8c-0.6,0.5-0.9,1-0.9,1c0.3-0.2,1.2-1.9,3.4-4.3c2.3-2.4,6.7-5.9,13.4-6.7
									c6.6-0.7,14.5,1.9,21.5,6.4c3.8,2.4,7.7,5,11.8,7.4c0.4,0.1,0.6,0.4,0.8,0.4c2.3,1.3,4.8,2.7,7.1,3.9
									c0.6,0.4,1.1,0.5,1.7,0.9c0.4,0.2,0.8,0.4,1.2,0.6c3.3,1.5,6.6,2.8,10,3.8l0.1-0.1c0.2,0.2,0.8,0.4,1.3,0.4
									c0.6,0.2,1.1,0.3,1.9,0.4c0.7,0.3,1.5,0.4,2.2,0.5c2.9,0.5,5.8,0.9,8.5,0.7c7.4-0.3,13.2-4.6,16.9-9.1
									c1.8-2.2,3.4-4.5,4.3-6.7c1.2-2.1,2-4,2.6-5.6c0.8-2.3,1.6-4,1.8-4.7c0,0.7-0.5,2.4-0.9,5c-0.2,1.8-0.8,3.8-1.7,6.1
									c-0.7,2.4-2.1,4.9-3.6,7.8C335.7,113.9,329.1,120,320.1,121.2z"/>
							</g>
						</g>
						<path class="st0" d="M184.7,101.9c0.1,0.1,0.3,0.3,0.4,0.4c0.1,0.1,0.2,0.2,0.2,0.2c-0.1-0.2-0.5-0.7-0.8-1
							c0-0.1-0.1-0.1-0.1-0.2c-0.3-0.4-0.7-0.8-1-1.1c-0.3-0.4-0.6-0.8-1.1-1c-0.5-0.3-1-0.6-1.4-0.9l-1.3-0.4c-0.1,0-0.2,0-0.3,0
							c-1-0.4-1.9-0.9-3.2-1c-3.8-0.5-8.3,1.1-12.3,3.7c-2.2,1.3-4.3,2.9-6.6,4.2c-0.3,0.1-0.4,0.3-0.5,0.3
							c-1.3,0.8-2.7,1.5-4.1,2.2c-0.4,0.3-0.7,0.4-1,0.6c-0.2,0.1-0.4,0.2-0.6,0.3l0.8,0.6c4.9-2.4,19.8-8.8,20.4-9
							c0.7-0.2,1.3-0.2,2.1-0.4c0.7,0,1.5,0,2.2,0c0.7,0.3,1.6,0.4,2.2,0.6l0.1,0l1.1,0.5c0.3,0.2,0.5,0.4,0.9,0.6
							c0.3,0.2,0.5,0.5,0.7,0.8c0.3,0.2,0.5,0.5,0.7,0.9c0.9,1.2,1.5,2.9,1.3,4.4c0,1.6-0.6,3.1-1.7,4c-1.1,0.9-2.5,1.4-3.9,1.2
							c-1.5-0.2-2.4-1-3-2.2c-0.2-0.5-0.3-1.1-0.1-1.8l0-0.2c0,0,0-0.1,0.1-0.2c0.1-0.1,0.1-0.4,0.2-0.5c0.1-0.2,0.2-0.4,0.4-0.5
							c0.7-0.8,2-0.9,2.9-0.5c0.7,0.4,0.9,1.4,0.8,2c-0.2,0.9-0.7,1.1-1.1,1.2c-0.2,0-0.3-0.1-0.4,0c0.1,0.1,0.3,0.1,0.5,0.1
							c0.2-0.1,0.5,0,0.8-0.3c0.3-0.2,0.6-0.4,0.7-0.8c0.1-0.6,0.3-1,0.1-1.6c0-0.6-0.6-1.2-1.1-1.6c-1-0.7-2.7-0.9-4.1,0.2
							c-0.4,0.2-0.7,0.6-1,1l-0.3,0.5c-0.1,0.2,0,0.1-0.1,0.4l-0.1,0.4c-0.3,0.8-0.2,1.7,0,2.7c0.3,0.9,0.8,1.8,1.6,2.5
							c0.4,0.4,1,0.8,1.4,0.9c0.2,0.1,0.2,0.1,0.7,0.3l0.7,0.2c2,0.3,4.3-0.1,6-1.6c1.8-1.5,2.6-3.7,2.7-5.8
							C186.3,105.3,185.7,103.5,184.7,101.9z"/>
						<path class="st0" d="M238.5,101.9c-0.1,0.1-0.3,0.3-0.4,0.4c-0.1,0.1-0.2,0.2-0.2,0.2c0.1-0.2,0.6-0.7,0.8-1
							c0.1-0.1,0.1-0.1,0.1-0.2c0.3-0.4,0.6-0.8,1-1.1c0.3-0.4,0.6-0.8,1.1-1c0.5-0.3,1-0.6,1.4-0.9l1.3-0.4c0.1,0,0.2,0,0.3,0
							c1-0.4,1.9-0.9,3.2-1c3.8-0.5,8.3,1.1,12.3,3.7c2.2,1.3,4.3,2.9,6.6,4.2c0.3,0.1,0.4,0.3,0.4,0.3c1.3,0.8,2.7,1.5,4.1,2.2
							c0.4,0.3,0.7,0.4,1.1,0.6c0.2,0.1,0.4,0.2,0.5,0.3l-0.8,0.6c-4.9-2.4-19.8-8.8-20.4-9c-0.6-0.2-1.3-0.2-2.1-0.4
							c-0.8,0-1.5,0-2.2,0c-0.7,0.3-1.6,0.4-2.2,0.6l-0.1,0l-1.1,0.5c-0.3,0.2-0.5,0.4-0.9,0.6c-0.3,0.2-0.5,0.5-0.7,0.8
							c-0.3,0.2-0.6,0.5-0.7,0.9c-0.9,1.2-1.5,2.9-1.3,4.4c0.1,1.6,0.7,3.1,1.7,4c1.1,0.9,2.5,1.4,3.9,1.2c1.5-0.2,2.4-1,3-2.2
							c0.1-0.5,0.3-1.1,0.1-1.8v-0.2c0,0-0.1-0.1-0.1-0.2c0-0.1-0.1-0.4-0.2-0.5c-0.1-0.2-0.2-0.4-0.4-0.5c-0.7-0.8-2-0.9-2.8-0.5
							c-0.7,0.4-1,1.4-0.8,2c0.1,0.9,0.7,1.1,1.1,1.2c0.2,0,0.3-0.1,0.4,0c-0.1,0.1-0.3,0.1-0.5,0.1c-0.2-0.1-0.5,0-0.8-0.3
							c-0.3-0.2-0.5-0.4-0.8-0.8c-0.1-0.6-0.3-1-0.1-1.6c0-0.6,0.7-1.2,1.1-1.6c1-0.7,2.7-0.9,4.1,0.2c0.4,0.2,0.7,0.6,1,1l0.3,0.5
							c0.1,0.2,0.1,0.1,0.1,0.4l0.1,0.4c0.3,0.8,0.2,1.7,0,2.7c-0.3,0.9-0.8,1.8-1.6,2.5c-0.4,0.4-1,0.8-1.4,0.9
							c-0.2,0.1-0.2,0.1-0.7,0.3l-0.7,0.2c-2,0.3-4.3-0.1-6-1.6c-1.8-1.5-2.6-3.7-2.7-5.8C236.9,105.3,237.5,103.5,238.5,101.9z"/>
						<g>
							<path class="st0" d="M46.3,90.2c-2.8,1.2-5.1,4.2-3.7,7.7c3.9,9.2,22.8-8,49.2,23.5C82.2,104.6,60.4,84.3,46.3,90.2z"/>
							<path class="st0" d="M68.5,79.4C69.4,78,71.2,77,73,78c4.7,2.8-6,11.7,9.1,28.3C73.7,99.9,64.3,86.6,68.5,79.4z"/>
						</g>
						<g>
							<path class="st0" d="M378.8,90.2c2.8,1.2,5.1,4.2,3.7,7.7c-3.9,9.2-22.8-8-49.2,23.5C342.9,104.6,364.7,84.3,378.8,90.2z"/>
							<path class="st0" d="M356.6,79.4c-0.8-1.4-2.7-2.4-4.4-1.4c-4.7,2.8,6,11.7-9.1,28.3C351.4,99.9,360.8,86.6,356.6,79.4z"/>
						</g>
					</g>
					<g>
						<g>
							<path class="st0" d="M226.5,217.9c0,0,0.7,0.7,1.8,2c0.4,0.7,1.1,1.4,1.5,2.5c0.2,0.5,0.5,1,0.6,1.7c0.1,0.6,0.3,1.2,0.4,1.9
								c0,0.6,0.1,1.3,0,2.1c-0.1,0.7-0.2,1.4-0.3,2.2c-0.3,0.7-0.5,1.5-0.8,2.1c-0.5,0.6-0.8,1.5-1.3,2l-0.9,1
								c-0.3,0.3-0.6,0.4-0.9,0.6c-0.3,0.2-0.7,0.3-1,0.5c-0.4,0.2-0.8,0.4-1.1,0.4c-1.5,0.5-3.2,0.5-4.7-0.1
								c-1.6-0.6-2.9-1.7-3.4-3c-0.6-1.4-0.6-2.9,0.1-4.3c0.6-1.4,1.7-2,3.1-2.3c0.6,0.1,1.3,0.1,1.8,0.5l0.2,0.1
								c0-0.1,0.1,0.1,0.2,0.1c0.1,0.1,0.3,0.3,0.4,0.3c0.1,0.2,0.3,0.3,0.4,0.6c0.5,1,0.3,2.2-0.4,2.9c-0.7,0.7-1.7,0.6-2.2,0.3
								c-0.8-0.5-0.8-1-0.8-1.5c0.1-0.4,0.2-0.7,0.2-0.7s0,0.2-0.3,0.7c0,0.2-0.1,0.5,0,0.8c0.1,0.4,0.3,0.7,0.6,1
								c0.5,0.3,0.8,0.6,1.5,0.6c0.6,0.1,1.4-0.2,1.9-0.5c1.1-0.7,1.8-2.5,1.2-4.2c-0.1-0.4-0.3-0.8-0.7-1.2
								c-0.2-0.2-0.3-0.3-0.4-0.4c-0.1,0-0.1-0.1-0.3-0.2l-0.3-0.2c-0.7-0.6-1.7-0.8-2.7-0.9c-1,0-2,0.3-2.9,0.7
								c-0.5,0.3-1.1,0.8-1.3,1.1c-0.2,0.2-0.3,0.2-0.5,0.6l-0.4,0.7c-1,1.8-1.3,4.3-0.4,6.4c0.9,2.2,2.8,3.7,4.9,4.4
								c2.1,0.8,4.4,0.8,6.4,0.2c0.5-0.1,1-0.4,1.5-0.6c0.5-0.3,0.9-0.5,1.4-0.9c0.4-0.4,0.9-0.7,1.3-1.1l0.8-1.1
								c0.7-0.9,1-1.7,1.4-2.6c0.4-0.9,0.5-1.7,0.8-2.6c0.1-0.8,0.2-1.7,0.2-2.6c-0.1-0.8-0.2-1.6-0.3-2.4c-0.2-0.7-0.5-1.4-0.6-2.1
								c-0.3-0.6-0.7-1.2-1-1.7c-0.6-1-1.5-1.8-2-2.4c-0.7-0.5-1.3-0.9-1.6-1.2C226.7,218.1,226.5,217.9,226.5,217.9z"/>
							<path class="st0" d="M199.7,217.9c0,0-0.7,0.7-1.8,2c-0.4,0.7-1.1,1.4-1.5,2.5c-0.2,0.5-0.5,1-0.6,1.7
								c-0.1,0.6-0.3,1.2-0.4,1.9c0,0.6-0.1,1.3,0,2.1c0.1,0.7,0.2,1.4,0.3,2.2c0.3,0.7,0.5,1.5,0.8,2.1c0.4,0.6,0.8,1.5,1.3,2
								l0.9,1c0.3,0.3,0.6,0.4,0.9,0.6c0.3,0.2,0.7,0.3,1,0.5c0.4,0.2,0.8,0.4,1.1,0.4c1.5,0.5,3.3,0.5,4.7-0.1
								c1.5-0.6,2.9-1.7,3.4-3c0.6-1.4,0.5-2.9-0.1-4.3c-0.6-1.4-1.7-2-3.1-2.3c-0.6,0.1-1.3,0.1-1.8,0.5l-0.2,0.1
								c0-0.1-0.1,0.1-0.2,0.1c-0.1,0.1-0.3,0.3-0.4,0.3c-0.1,0.2-0.3,0.3-0.4,0.6c-0.4,1-0.3,2.2,0.5,2.9c0.7,0.7,1.7,0.6,2.2,0.3
								c0.8-0.5,0.8-1,0.8-1.5c-0.1-0.4-0.2-0.7-0.2-0.7s0.1,0.2,0.3,0.7c0,0.2,0.1,0.5,0,0.8c-0.1,0.4-0.3,0.7-0.6,1
								c-0.5,0.3-0.9,0.6-1.5,0.6c-0.6,0.1-1.4-0.2-1.9-0.5c-1.1-0.7-1.8-2.5-1.2-4.2c0.1-0.4,0.3-0.8,0.7-1.2
								c0.2-0.2,0.3-0.3,0.4-0.4c0.1,0,0.1-0.1,0.3-0.2l0.3-0.2c0.7-0.6,1.7-0.8,2.7-0.9c1,0,2,0.3,3,0.7c0.5,0.3,1.1,0.8,1.3,1.1
								c0.2,0.2,0.2,0.2,0.5,0.6l0.4,0.7c1,1.8,1.3,4.3,0.4,6.4c-0.9,2.2-2.8,3.7-4.9,4.4c-2.1,0.8-4.4,0.8-6.4,0.2
								c-0.6-0.1-1.1-0.4-1.5-0.6c-0.5-0.3-0.9-0.5-1.4-0.9c-0.4-0.4-0.9-0.7-1.3-1.1l-0.8-1.1c-0.7-0.9-1-1.7-1.4-2.6
								c-0.3-0.9-0.5-1.7-0.7-2.6c-0.1-0.8-0.1-1.7-0.2-2.6c0.1-0.8,0.2-1.6,0.3-2.4c0.2-0.7,0.5-1.4,0.7-2.1c0.3-0.6,0.7-1.2,1-1.7
								c0.5-1,1.5-1.8,2-2.4c0.7-0.5,1.2-0.9,1.6-1.2C199.5,218.1,199.7,217.9,199.7,217.9z"/>
						</g>
						<path class="st0" d="M207.8,220.7c1.5,1,3,2.8,4.3,4.9c-0.3,0.8,0.6,1,0.6,1c0.3,0.6,0.7-0.9,0.7-0.9l0.8-1
							c1.1-1.7,2.3-3,3.4-3.7c4-3.2,8.3-2.9,8.1-3.9c0-0.3-0.9-0.5-2.5-0.5c-1.6,0-4.1,0.5-6.5,2.2c-1.5,1-2.7,2.6-3.7,4.5
							c-1-1.8-2.2-3.4-3.4-4.2c-1.1-1-2.5-1.5-3.6-2c-1.2-0.3-2.2-0.6-3.1-0.6c-1.8,0-2.8,0.1-2.8,0.5
							C200,217.9,203.7,217.9,207.8,220.7z"/>
						<path class="st0" d="M274,228.1c-1-0.9-2-2.8-2.9-4.9c0.2-0.8-0.4-1-0.4-1c-0.2-0.6-0.5,0.9-0.5,0.9l-0.6,1
							c-0.8,1.7-1.6,3-2.3,3.7c-2.7,3.1-5.6,2.9-5.5,3.9c0,0.3,0.6,0.6,1.7,0.6c1.1,0,2.8-0.5,4.4-2.2c1-1,1.8-2.6,2.5-4.5
							c0.7,1.8,1.5,3.4,2.3,4.1c0.8,1,1.7,1.5,2.4,2c0.8,0.3,1.5,0.6,2.1,0.6c1.2,0,1.9-0.1,1.9-0.4
							C279.3,230.9,276.8,230.9,274,228.1z"/>
						<path class="st0" d="M159.1,228.1c-1-0.9-2-2.8-2.9-4.9c0.2-0.8-0.4-1-0.4-1c-0.2-0.6-0.5,0.9-0.5,0.9l-0.6,1
							c-0.8,1.7-1.6,3-2.3,3.7c-2.7,3.1-5.6,2.9-5.5,3.9c0,0.3,0.6,0.6,1.7,0.6c1.1,0,2.8-0.5,4.5-2.2c1-1,1.8-2.6,2.5-4.5
							c0.7,1.8,1.5,3.4,2.3,4.1c0.8,1,1.7,1.5,2.4,2c0.8,0.3,1.5,0.6,2.1,0.6c1.2,0,1.9-0.1,1.9-0.4
							C164.4,230.9,161.9,230.9,159.1,228.1z"/>
						<polygon class="st0" points="213,266.3 207.2,273.7 213,281 218.9,273.7 						"/>
						<path class="st0" d="M214.7,266.3c0,0,0.5,0.9,1.6,2.3c0.7,0.6,1.2,1.5,2.3,2.2c0.5,0.3,0.9,0.8,1.6,1
							c0.6,0.3,1.2,0.6,1.9,0.9c0.6,0.2,1.4,0.4,2.2,0.5c0.8,0.1,1.5,0.1,2.3,0.2c0.8-0.1,1.7-0.2,2.4-0.3c0.7-0.3,1.7-0.5,2.4-0.9
							l1.3-0.7c0.3-0.3,0.5-0.5,0.9-0.8c0.3-0.2,0.5-0.6,0.8-0.9c0.3-0.3,0.6-0.7,0.7-1.1c0.9-1.5,1.3-3.3,0.9-5
							c-0.2-1.7-1-3.4-2.3-4.2c-1.3-1-3-1.3-4.5-1c-1.6,0.3-2.5,1.3-3,2.7c-0.1,0.7-0.2,1.4,0,2l0.1,0.2c-0.1-0.1,0.1,0.1,0.1,0.2
							c0.1,0.2,0.2,0.4,0.2,0.5c0.1,0.2,0.3,0.4,0.5,0.6c0.9,0.7,2.3,0.8,3.1,0.2c0.9-0.5,1-1.6,0.8-2.2c-0.3-1-0.9-1.1-1.4-1.2
							c-0.5,0-0.7,0-0.7,0s0.2,0,0.7-0.2c0.2,0.1,0.6,0,0.9,0.2c0.4,0.2,0.7,0.5,0.9,0.8c0.2,0.6,0.5,1.1,0.3,1.7
							c0,0.6-0.5,1.4-1,1.8c-1,1-3,1.3-4.6,0.2c-0.4-0.2-0.8-0.6-1.1-1c-0.2-0.2-0.2-0.4-0.4-0.5c0-0.1-0.1-0.1-0.2-0.4l-0.1-0.4
							c-0.4-0.9-0.4-2-0.3-3c0.3-1.1,0.8-2.1,1.5-2.9c0.4-0.4,1.1-0.9,1.4-1.1c0.3-0.1,0.3-0.2,0.8-0.4l0.8-0.2
							c2.2-0.7,4.8-0.4,6.8,1.1c2.1,1.5,3.2,3.8,3.5,6.2c0.4,2.3-0.2,4.7-1.3,6.7c-0.3,0.5-0.6,1-1,1.4c-0.4,0.4-0.7,0.9-1.2,1.3
							c-0.5,0.4-1,0.7-1.4,1.1l-1.4,0.6c-1.1,0.5-2,0.6-3.1,0.9c-1,0.2-1.9,0.1-2.9,0.2c-0.9-0.1-1.9-0.3-2.7-0.4
							c-0.8-0.3-1.7-0.6-2.4-0.9c-0.7-0.4-1.4-0.8-2-1.2c-0.6-0.4-1.1-1-1.6-1.4c-0.9-0.8-1.5-2-2-2.6c-0.4-0.8-0.6-1.5-0.9-1.9
							C214.8,266.5,214.7,266.3,214.7,266.3z"/>
						<path class="st0" d="M211.1,266.3c0,0-0.5,0.9-1.6,2.3c-0.7,0.6-1.2,1.5-2.3,2.2c-0.5,0.3-0.9,0.8-1.6,1
							c-0.6,0.3-1.2,0.6-1.9,0.9c-0.7,0.2-1.4,0.4-2.2,0.5c-0.8,0.1-1.5,0.1-2.3,0.2c-0.8-0.1-1.7-0.2-2.4-0.3
							c-0.8-0.3-1.7-0.5-2.4-0.9l-1.3-0.7c-0.3-0.3-0.5-0.5-0.9-0.8c-0.3-0.2-0.5-0.6-0.8-0.9c-0.3-0.3-0.6-0.7-0.7-1.1
							c-0.9-1.5-1.3-3.3-0.9-5c0.2-1.7,1-3.4,2.3-4.2c1.3-1,3-1.3,4.5-1c1.6,0.3,2.5,1.3,3.1,2.7c0.1,0.7,0.2,1.4,0,2l0,0.2
							c0.1-0.1-0.1,0.1-0.1,0.2c-0.1,0.2-0.2,0.4-0.2,0.5c-0.2,0.2-0.3,0.4-0.5,0.6c-0.9,0.7-2.3,0.8-3.1,0.2
							c-0.9-0.5-1-1.6-0.9-2.2c0.3-1,0.9-1.1,1.4-1.2c0.5,0,0.7,0,0.7,0s-0.2,0-0.7-0.2c-0.2,0.1-0.6,0-0.9,0.2
							c-0.4,0.2-0.7,0.5-0.9,0.8c-0.2,0.6-0.5,1.1-0.3,1.7c0,0.6,0.6,1.4,1,1.8c1,1,3,1.3,4.6,0.2c0.4-0.2,0.8-0.6,1.1-1
							c0.1-0.2,0.2-0.4,0.3-0.5c0-0.1,0.1-0.1,0.2-0.4l0.1-0.4c0.4-0.9,0.4-2,0.3-3c-0.2-1.1-0.7-2.1-1.5-2.9
							c-0.5-0.4-1.1-0.9-1.4-1.1c-0.3-0.1-0.3-0.2-0.8-0.4l-0.8-0.2c-2.2-0.7-4.8-0.4-6.8,1.1c-2.1,1.5-3.1,3.8-3.5,6.2
							c-0.3,2.3,0.2,4.7,1.3,6.7c0.3,0.5,0.6,1,1,1.4c0.4,0.4,0.7,0.9,1.2,1.3c0.5,0.4,1,0.7,1.4,1.1l1.3,0.6c1.1,0.5,2,0.6,3.1,0.9
							c1,0.2,2,0.1,2.9,0.2c0.9-0.1,1.8-0.3,2.7-0.4c0.8-0.3,1.7-0.6,2.4-0.9c0.7-0.4,1.4-0.8,2-1.2c0.6-0.4,1.1-1,1.6-1.4
							c0.9-0.8,1.5-2,2-2.6c0.4-0.8,0.6-1.5,0.9-1.9C211,266.5,211.1,266.3,211.1,266.3z"/>
						<g>
							<path class="st0" d="M234.1,253.5c0.1-0.2,0.9,0,2.2,0.5c0.6,0.3,1.3,0.9,2.1,1.4c0.7,0.7,1.5,1.5,2,2.5
								c0.7,1,1.2,2.7,1.3,4.5c0.1,1.8-0.2,3.8-0.7,5.5c-1,3.4-2.7,5.8-2.5,5.6c1.2-1.8,2-4.7,2.1-7.6c0.1-3-0.9-5.7-2-7.3
								C236.4,255.2,233.7,254.1,234.1,253.5z"/>
						</g>
						<g>
							<path class="st0" d="M191.6,253.5c-0.1-0.2-0.9,0-2.3,0.5c-0.6,0.3-1.3,0.9-2.1,1.4c-0.7,0.7-1.5,1.5-2,2.5
								c-0.7,1-1.1,2.7-1.3,4.5c-0.1,1.8,0.2,3.8,0.7,5.5c1,3.4,2.7,5.8,2.6,5.6c-1.2-1.8-2-4.7-2.1-7.6c-0.1-3,0.9-5.7,2-7.3
								C189.2,255.2,191.9,254.1,191.6,253.5z"/>
						</g>
						<g>
							<path class="st0" d="M228.2,243.8c0.1-0.5,0.3-1.2,0.5-1.7c1.3-2.4,3.8-4.1,6.5-4.6c1.1-0.1,2.2-0.1,3.3,0.2
								c0.2,0,0.3,0.1,0.4,0.1c-0.4,0.1-0.7,0.3-1.2,0.4c-2.7-0.3-5.3,0.7-7,2.4c-0.7,0.6-1.2,1.5-1.5,2.3c-0.6,1.5-0.5,3.1-0.2,4.3
								c0.6,1.9,2.1,3.5,3.8,4c1.8,0.6,3.7,0.2,5-0.8c1.3-1.1,1.9-2.6,1.6-4.1c-0.3-1.5-1.4-2.5-2.4-3c-1.2-0.4-2.3-0.1-3.1,0.4
								c-0.7,0.6-1.1,1.5-1.1,2.1c-0.1,1.3,0.5,1.9,0.4,1.9c-0.1,0-0.2-0.1-0.2-0.2c-0.2-0.3-0.5-0.8-0.5-1.4
								c-0.1-0.6,0-1.6,0.6-2.3c0.7-0.7,1.8-1.3,3.3-1.2c1.3,0,2.6,0.9,3.3,2.4c0.8,1.4,0.9,3.3-0.3,4.8c-0.9,1.6-2.8,2.5-4.9,2.5
								c-2.1,0-4.2-1.3-5.4-3.3C228.2,247.6,227.9,245.7,228.2,243.8z"/>
						</g>
						<g>
							<path class="st0" d="M198,243.8c-0.1-0.5-0.3-1.2-0.5-1.7c-1.3-2.4-3.8-4.1-6.5-4.6c-1.1-0.1-2.2-0.1-3.3,0.2
								c-0.2,0-0.3,0.1-0.4,0.1c0.4,0.1,0.7,0.3,1.2,0.4c2.7-0.3,5.3,0.7,6.9,2.4c0.7,0.6,1.2,1.5,1.5,2.3c0.6,1.5,0.5,3.1,0.2,4.3
								c-0.6,1.9-2.1,3.5-3.8,4c-1.8,0.6-3.7,0.2-4.9-0.8c-1.3-1.1-1.9-2.6-1.6-4.1c0.3-1.5,1.4-2.5,2.4-3c1.2-0.4,2.3-0.1,3.2,0.4
								c0.7,0.6,1.1,1.5,1.1,2.1c0.1,1.3-0.5,1.9-0.4,1.9c0.1,0,0.2-0.1,0.2-0.2c0.2-0.3,0.5-0.8,0.5-1.4c0.1-0.6,0-1.6-0.6-2.3
								c-0.7-0.7-1.8-1.3-3.3-1.2c-1.3,0-2.6,0.9-3.3,2.4c-0.9,1.4-1,3.3,0.3,4.8c1,1.6,2.8,2.5,5,2.5c2.1,0,4.2-1.3,5.4-3.3
								C198,247.6,198.4,245.7,198,243.8z"/>
						</g>
						<g>
							<g>
								<path class="st0" d="M221.4,245.6c3.3-4.7,8.4-8.2,14-10.7c5.6-2.4,11.4-3.7,16.5-4.7c4.7-1.1,8.9-2.9,11.4-5.6
									c2.6-2.7,3.4-5.9,3.5-8c0.1-1,0-1.9-0.1-2.5c0-0.5-0.1-0.8-0.1-0.8c0,0.2,0.4,1.4,0.6,3.4c0.2,2.1,0,5.7-2.4,9.2
									c-2.4,3.5-6.9,6.1-12,7.6c-2.7,0.8-5.6,1.6-8.4,2.5c-0.2,0.1-0.4,0.1-0.5,0.2c-1.6,0.5-3.3,1.2-4.8,1.8
									c-0.4,0.1-0.7,0.3-1.2,0.4c-0.2,0.1-0.5,0.2-0.7,0.3c-2.1,0.9-4.1,2-6,3.2v0.1c-0.2,0-0.5,0.2-0.7,0.4
									c-0.3,0.2-0.6,0.4-0.9,0.7c-0.4,0.2-0.8,0.6-1.2,0.9c-1.5,1.1-2.8,2.4-3.9,3.8c-2.9,3.7-3.4,8.3-2.7,11.9
									c0.3,1.8,0.7,3.5,1.4,4.8c0.5,1.5,1,2.6,1.6,3.6c0.7,1.4,1.3,2.4,1.5,2.8c-0.3-0.3-0.9-1.3-2-2.5c-0.7-0.8-1.5-2-2.2-3.4
									c-0.8-1.4-1.5-3-2.2-5C218.4,256.2,218.3,250.5,221.4,245.6z"/>
							</g>
						</g>
						<g>
							<g>
								<path class="st0" d="M200,271c0,0,0.6-1.1,1.6-3c0.5-0.9,1.1-2.2,1.6-3.6c0.6-1.4,1.1-3.1,1.4-4.9c0.6-3.7,0.2-8.2-2.7-11.9
									c-2.9-3.7-7.5-6.7-12.8-9c-5.3-2.3-10.6-3.8-15.6-5.3c-5.1-1.5-9.6-4.1-12-7.7c-2.5-3.4-2.7-7-2.5-9.1
									c0.2-2.2,0.7-3.3,0.7-3.4c0,0-0.1,0.3-0.2,0.9c-0.1,0.5-0.1,1.4,0,2.5c0.1,2.1,0.9,5.3,3.4,8c2.5,2.7,6.7,4.6,11.5,5.6
									c5,1,10.8,2.3,16.4,4.8c5.6,2.5,10.8,6,14,10.7c3.3,4.8,3.1,10.5,1.9,14.3c-0.7,2-1.3,3.7-2.2,5c-0.7,1.4-1.5,2.5-2.2,3.4
									C200.8,270,200,271,200,271z"/>
							</g>
						</g>
						<path class="st0" d="M154.6,214.1c0,0-0.9-0.6-2.4-1.4c-0.9-0.2-1.8-0.8-3-0.9c-0.6-0.1-1.2-0.3-1.9-0.2c-0.6,0-1.3,0-2.1,0
							c-0.7,0.1-1.4,0.3-2.2,0.5c-0.7,0.3-1.4,0.6-2.2,0.8c-0.7,0.5-1.4,0.9-2,1.4c-0.5,0.6-1.3,1.2-1.8,1.8l-0.8,1.1
							c-0.2,0.4-0.3,0.7-0.5,1.1c-0.2,0.3-0.2,0.8-0.3,1.2c-0.2,0.4-0.2,0.8-0.2,1.3c-0.1,1.7,0.3,3.5,1.3,4.9
							c0.9,1.5,2.4,2.6,3.9,2.8c1.6,0.3,3.2-0.1,4.5-1.1c1.3-1,1.7-2.3,1.6-3.7c-0.2-0.6-0.4-1.3-0.9-1.8l-0.1-0.2
							c0.1,0-0.1-0.1-0.2-0.1c-0.1-0.1-0.3-0.3-0.4-0.3c-0.2-0.1-0.4-0.2-0.7-0.3c-1.2-0.3-2.4,0.2-2.9,1.2
							c-0.5,0.8-0.2,1.9,0.2,2.4c0.7,0.7,1.3,0.6,1.8,0.5c0.4-0.2,0.6-0.3,0.6-0.3s-0.2,0.1-0.5,0.4c-0.3,0.1-0.5,0.3-0.9,0.2
							c-0.5,0-0.9-0.1-1.2-0.3c-0.4-0.5-0.9-0.8-1-1.4c-0.3-0.6-0.1-1.5,0.1-2.1c0.5-1.3,2.2-2.5,4.1-2.2c0.5,0,1,0.1,1.5,0.4
							c0.2,0.2,0.4,0.2,0.5,0.3c0.1,0.1,0.1,0,0.3,0.3l0.3,0.3c0.8,0.6,1.2,1.6,1.6,2.6c0.3,1,0.2,2.2-0.1,3.3
							c-0.2,0.6-0.5,1.3-0.8,1.6c-0.2,0.3-0.2,0.3-0.5,0.7l-0.6,0.6c-1.7,1.6-4.2,2.4-6.6,1.9c-2.6-0.4-4.5-2-5.8-4
							c-1.4-2-1.9-4.4-1.8-6.7c0-0.6,0.1-1.2,0.3-1.7c0.2-0.6,0.3-1.1,0.6-1.7c0.3-0.5,0.6-1.1,0.8-1.6l0.9-1.2
							c0.8-0.9,1.5-1.4,2.3-2.1c0.8-0.5,1.7-0.9,2.5-1.4c0.9-0.3,1.8-0.6,2.7-0.8c0.8,0,1.8-0.1,2.6-0.2c0.8,0.1,1.6,0.1,2.3,0.2
							c0.7,0.2,1.4,0.4,2,0.6c1.2,0.3,2.2,1.1,2.9,1.5c0.7,0.6,1.2,1.1,1.7,1.4C154.4,213.9,154.6,214.1,154.6,214.1z"/>
						<path class="st0" d="M270.7,214.1c0,0,0.9-0.6,2.4-1.4c0.9-0.2,1.8-0.8,3-0.9c0.6-0.1,1.2-0.3,1.9-0.2c0.6,0,1.3,0,2,0
							c0.7,0.1,1.4,0.3,2.2,0.5c0.7,0.3,1.4,0.6,2.2,0.8c0.7,0.5,1.4,0.9,2.1,1.4c0.5,0.6,1.3,1.2,1.8,1.8l0.8,1.1
							c0.2,0.4,0.3,0.7,0.5,1.1c0.2,0.3,0.2,0.8,0.3,1.2c0.1,0.4,0.2,0.8,0.2,1.3c0.2,1.7-0.3,3.5-1.3,4.9c-0.9,1.5-2.4,2.6-3.9,2.8
							c-1.6,0.3-3.2-0.1-4.5-1.1c-1.3-1-1.7-2.3-1.6-3.7c0.2-0.6,0.4-1.3,0.9-1.8l0.2-0.2c-0.1,0,0.1-0.1,0.1-0.1
							c0.1-0.1,0.4-0.3,0.5-0.3c0.2-0.1,0.4-0.2,0.7-0.3c1.1-0.3,2.4,0.2,2.9,1.2c0.5,0.8,0.2,1.9-0.2,2.4c-0.7,0.7-1.2,0.6-1.8,0.5
							c-0.4-0.2-0.6-0.3-0.6-0.3s0.2,0.1,0.6,0.4c0.3,0.1,0.5,0.3,0.9,0.2c0.5,0,0.9-0.1,1.2-0.3c0.4-0.5,0.9-0.8,1-1.4
							c0.2-0.6,0.1-1.5-0.1-2.1c-0.5-1.3-2.2-2.5-4.1-2.2c-0.5,0-0.9,0.1-1.5,0.4c-0.2,0.2-0.4,0.2-0.6,0.3c-0.1,0.1-0.1,0-0.3,0.3
							l-0.3,0.3c-0.8,0.6-1.3,1.6-1.6,2.6c-0.2,1-0.2,2.2,0.1,3.3c0.2,0.6,0.5,1.3,0.8,1.6c0.2,0.3,0.2,0.3,0.5,0.7l0.6,0.6
							c1.7,1.6,4.2,2.4,6.6,1.9c2.6-0.4,4.5-2,5.8-4c1.4-2,1.9-4.4,1.7-6.7c0-0.6-0.1-1.2-0.3-1.7c-0.2-0.6-0.3-1.1-0.6-1.7
							c-0.3-0.5-0.6-1.1-0.8-1.6l-0.9-1.2c-0.8-0.9-1.6-1.4-2.4-2.1c-0.8-0.5-1.7-0.9-2.6-1.4c-0.9-0.3-1.8-0.6-2.7-0.8
							c-0.8,0-1.7-0.1-2.5-0.2c-0.8,0.1-1.6,0.1-2.3,0.2c-0.7,0.2-1.4,0.4-2,0.6c-1.2,0.3-2.2,1.1-3,1.5c-0.7,0.6-1.2,1.1-1.6,1.4
							C270.9,213.9,270.7,214.1,270.7,214.1z"/>
						<g>
							<path class="st0" d="M294.9,223.2c0.3,0,0.3,0.8,0.2,2.1c-0.1,0.6-0.3,1.4-0.6,2.2c-0.4,0.8-0.9,1.7-1.6,2.5
								c-0.7,0.9-1.9,1.7-3.4,2.4c-1.5,0.6-3.3,0.9-4.8,1c-3.2,0.1-5.7-0.6-5.5-0.6c1.8,0.5,4.6,0.4,7.1-0.4
								c2.5-0.7,4.6-2.4,5.6-3.8C294.1,225.7,294.2,223,294.9,223.2z"/>
						</g>
						<g>
							<path class="st0" d="M130.8,222.8c-0.2,0-0.3,0.7-0.2,2c0.1,0.6,0.3,1.4,0.6,2.2c0.4,0.8,0.8,1.7,1.6,2.5
								c0.7,0.9,1.9,1.7,3.4,2.4c1.5,0.6,3.3,0.9,4.9,1c3.2,0.1,5.7-0.6,5.4-0.6c-1.8,0.5-4.6,0.4-7.1-0.4c-2.5-0.7-4.6-2.4-5.6-3.8
								C131.6,225.4,131.4,222.7,130.8,222.8z"/>
						</g>
						<g>
							<path class="st0" d="M222.8,241.3c-0.1-0.2-0.9-0.1-2.2,0.5c-0.6,0.3-1.3,0.8-2.1,1.4c-0.7,0.7-1.5,1.5-2,2.6
								c-0.7,1-1.1,2.7-1.3,4.5c-0.1,1.8,0.2,3.8,0.7,5.5c1,3.4,2.7,5.8,2.5,5.6c-1.1-1.8-2-4.7-2.1-7.7c-0.1-3,0.8-5.7,2-7.3
								C220.4,243,223.1,241.9,222.8,241.3z"/>
						</g>
						<g>
							<path class="st0" d="M202.8,241.3c0.1-0.2,0.9-0.1,2.2,0.5c0.6,0.3,1.3,0.8,2.1,1.4c0.7,0.7,1.5,1.5,2,2.6
								c0.7,1,1.2,2.7,1.3,4.5c0.1,1.8-0.2,3.8-0.7,5.5c-1,3.4-2.7,5.8-2.5,5.6c1.1-1.8,2-4.7,2.1-7.7c0.1-3-0.8-5.7-2-7.3
								C205.2,243,202.5,241.9,202.8,241.3z"/>
						</g>
						<g>
							<g>
								<path class="st0" d="M281.1,204.2c-5.7-0.6-11.7,0.9-17.3,3.5c-5.5,2.6-10.3,6.1-14.4,9.2c-3.9,2.9-8.1,4.9-11.7,4.9
									c-3.8,0.2-6.7-1.4-8.3-2.6c-0.8-0.6-1.4-1.3-1.8-1.8c-0.4-0.4-0.6-0.6-0.6-0.6c0.1,0.2,0.7,1.2,2.1,2.7
									c1.4,1.5,4.3,3.8,8.5,4.2c4.2,0.5,9.2-1.2,13.6-4c2.4-1.5,4.9-3.2,7.5-4.7c0.2-0.1,0.4-0.3,0.5-0.3c1.4-0.8,3-1.7,4.5-2.5
									c0.3-0.2,0.7-0.3,1.1-0.6c0.2-0.1,0.5-0.3,0.7-0.4c2.1-1,4.2-1.8,6.3-2.4l0.1,0.1c0.1-0.1,0.5-0.3,0.8-0.3
									c0.4-0.1,0.8-0.2,1.2-0.3c0.4-0.1,1-0.3,1.4-0.3c1.8-0.4,3.7-0.5,5.4-0.4c4.7,0.2,8.4,2.9,10.8,5.8c1.1,1.4,2.1,2.8,2.7,4.2
									c0.7,1.4,1.3,2.5,1.7,3.5c0.5,1.5,1,2.6,1.2,3c0-0.5-0.3-1.5-0.6-3.2c-0.2-1.1-0.5-2.4-1.1-3.9c-0.5-1.5-1.3-3.1-2.3-4.9
									C291.1,208.8,286.9,205,281.1,204.2z"/>
							</g>
						</g>
						<g>
							<g>
								<path class="st0" d="M144.4,204.2c5.7-0.6,11.7,0.9,17.3,3.5c5.5,2.6,10.3,6.1,14.4,9.2c3.9,2.9,8.1,4.9,11.7,4.9
									c3.8,0.2,6.6-1.4,8.3-2.6c0.9-0.6,1.4-1.3,1.8-1.8c0.4-0.4,0.6-0.6,0.6-0.6c-0.2,0.2-0.8,1.2-2.1,2.7
									c-1.5,1.5-4.3,3.8-8.5,4.2c-4.2,0.5-9.2-1.2-13.6-4c-2.4-1.5-4.9-3.2-7.5-4.7c-0.2-0.1-0.4-0.3-0.5-0.3
									c-1.5-0.8-3-1.7-4.5-2.5c-0.4-0.2-0.7-0.3-1.1-0.6c-0.2-0.1-0.5-0.3-0.7-0.4c-2.1-1-4.2-1.8-6.3-2.4l-0.1,0.1
									c-0.1-0.1-0.5-0.3-0.8-0.3c-0.4-0.1-0.7-0.2-1.2-0.3c-0.4-0.1-0.9-0.3-1.4-0.3c-1.8-0.4-3.7-0.5-5.4-0.4
									c-4.7,0.2-8.4,2.9-10.7,5.8c-1.2,1.4-2.1,2.8-2.8,4.2c-0.7,1.4-1.3,2.5-1.6,3.5c-0.5,1.5-1,2.6-1.2,3c0-0.5,0.3-1.5,0.6-3.2
									c0.2-1.1,0.5-2.4,1.1-3.9c0.5-1.5,1.3-3.1,2.3-4.9C134.4,208.8,138.7,205,144.4,204.2z"/>
							</g>
						</g>
						<path class="st0" d="M230.2,216.4c-0.1-0.1-0.2-0.2-0.3-0.2c-0.1-0.1-0.1-0.1-0.1-0.1c0.1,0.1,0.4,0.4,0.5,0.6
							c0,0,0,0.1,0.1,0.1c0.2,0.3,0.4,0.5,0.6,0.7c0.2,0.2,0.4,0.5,0.7,0.7c0.3,0.2,0.6,0.3,0.9,0.5l0.8,0.2c0,0,0.1,0,0.2,0
							c0.6,0.2,1.2,0.6,2,0.6c2.4,0.3,5.3-0.7,7.8-2.4c1.4-0.8,2.7-1.8,4.2-2.6c0.2-0.1,0.2-0.2,0.3-0.2c0.8-0.5,1.7-1,2.6-1.4
							c0.2-0.2,0.4-0.2,0.7-0.4c0.1,0,0.2-0.1,0.4-0.2l-0.5-0.3c-3.1,1.5-12.5,5.6-12.9,5.7c-0.4,0.1-0.8,0.1-1.3,0.2
							c-0.5,0-1,0-1.4,0c-0.5-0.2-1-0.2-1.4-0.4l-0.1,0l-0.7-0.3c-0.2-0.1-0.4-0.3-0.6-0.4c-0.2-0.1-0.3-0.3-0.5-0.5
							c-0.2-0.1-0.3-0.3-0.5-0.5c-0.6-0.8-0.9-1.8-0.8-2.8c0-1,0.4-2,1.1-2.6c0.6-0.6,1.6-0.9,2.4-0.7c1,0.1,1.5,0.6,1.9,1.4
							c0.1,0.3,0.2,0.7,0,1.1v0.1c0,0,0,0.1,0,0.1c0,0-0.1,0.2-0.1,0.3c-0.1,0.1-0.1,0.2-0.3,0.3c-0.5,0.5-1.3,0.6-1.8,0.3
							c-0.5-0.3-0.6-0.9-0.5-1.3c0.1-0.6,0.4-0.7,0.7-0.8c0.1,0,0.2,0,0.3,0c-0.1,0-0.2-0.1-0.3-0.1c-0.1,0.1-0.3,0-0.5,0.2
							c-0.2,0.1-0.4,0.3-0.5,0.5c-0.1,0.4-0.2,0.6,0,1c0,0.4,0.4,0.8,0.7,1c0.6,0.5,1.7,0.5,2.6-0.1c0.3-0.1,0.5-0.4,0.6-0.6
							l0.2-0.3c0.1-0.1,0-0.1,0.1-0.2l0-0.2c0.2-0.5,0.1-1.1,0-1.8c-0.2-0.5-0.5-1.2-1-1.6c-0.3-0.2-0.6-0.5-0.9-0.6
							c-0.2-0.1-0.2-0.1-0.4-0.2l-0.5-0.1c-1.3-0.2-2.7,0.1-3.8,1c-1.1,0.9-1.6,2.3-1.7,3.7C229.2,214.2,229.6,215.4,230.2,216.4z"
							/>
						<path class="st0" d="M196.1,216.4c0.1-0.1,0.2-0.2,0.3-0.2c0.1-0.1,0.1-0.1,0.1-0.1c-0.1,0.1-0.4,0.4-0.5,0.6
							c0,0-0.1,0.1-0.1,0.1c-0.2,0.3-0.4,0.5-0.6,0.7c-0.2,0.2-0.4,0.5-0.7,0.7c-0.3,0.2-0.6,0.3-0.9,0.5l-0.8,0.2
							c-0.1,0-0.1,0-0.2,0c-0.6,0.2-1.2,0.6-2,0.6c-2.4,0.3-5.3-0.7-7.8-2.4c-1.4-0.8-2.7-1.8-4.2-2.6c-0.2-0.1-0.2-0.2-0.3-0.2
							c-0.8-0.5-1.7-1-2.6-1.4c-0.2-0.2-0.4-0.2-0.6-0.4c-0.1,0-0.2-0.1-0.4-0.2l0.5-0.3c3.1,1.5,12.5,5.6,12.9,5.7
							c0.4,0.1,0.9,0.1,1.3,0.2c0.5,0,1,0,1.4,0c0.4-0.2,1-0.2,1.4-0.4l0.1,0l0.7-0.3c0.2-0.1,0.3-0.3,0.6-0.4
							c0.2-0.1,0.3-0.3,0.5-0.5c0.2-0.1,0.4-0.3,0.5-0.5c0.6-0.8,0.9-1.8,0.8-2.8c0-1-0.4-2-1.1-2.6c-0.7-0.6-1.6-0.9-2.5-0.7
							c-1,0.1-1.5,0.6-1.9,1.4c-0.1,0.3-0.2,0.7-0.1,1.1v0.1c0,0,0,0.1,0.1,0.1c0,0,0.1,0.2,0.1,0.3c0.1,0.1,0.1,0.2,0.2,0.3
							c0.5,0.5,1.3,0.6,1.8,0.3c0.5-0.3,0.6-0.9,0.5-1.3c-0.1-0.6-0.4-0.7-0.7-0.8c-0.1,0-0.2,0-0.3,0c0,0,0.1-0.1,0.3-0.1
							c0.1,0.1,0.3,0,0.5,0.2c0.2,0.1,0.4,0.3,0.5,0.5c0.1,0.4,0.2,0.6,0.1,1c0,0.4-0.4,0.8-0.7,1c-0.6,0.5-1.7,0.5-2.6-0.1
							c-0.3-0.1-0.5-0.4-0.6-0.6l-0.2-0.3c-0.1-0.1,0-0.1-0.1-0.2l0-0.2c-0.2-0.5-0.1-1.1,0-1.8c0.2-0.5,0.5-1.2,1-1.6
							c0.3-0.2,0.6-0.5,0.9-0.6c0.1-0.1,0.1-0.1,0.4-0.2l0.5-0.1c1.3-0.2,2.7,0.1,3.8,1c1.1,0.9,1.6,2.3,1.7,3.7
							C197.1,214.2,196.7,215.4,196.1,216.4z"/>
						<g>
							<path class="st0" d="M318,223.8c1.8-0.7,3.2-2.7,2.3-4.9c-2.5-5.9-14.5,5.1-31.2-14.9C295.2,214.7,309,227.6,318,223.8z"/>
							<path class="st0" d="M303.9,230.7c-0.5,0.9-1.7,1.6-2.8,0.9c-3-1.8,3.8-7.4-5.8-18C300.6,217.7,306.5,226.1,303.9,230.7z"/>
						</g>
						<g>
							<path class="st0" d="M107.1,223.8c-1.8-0.7-3.2-2.7-2.3-4.9c2.5-5.9,14.4,5.1,31.2-14.9C129.9,214.7,116.1,227.6,107.1,223.8
								z"/>
							<path class="st0" d="M121.2,230.7c0.5,0.9,1.7,1.6,2.8,0.9c3-1.8-3.8-7.4,5.8-18C124.5,217.7,118.6,226.1,121.2,230.7z"/>
						</g>
					</g>
					<g>
						<path class="st0" d="M411.8,109.7c-1.2-1.7-2.8-3.2-5.1-3.5c-2.2-0.5-4.3,0.3-5.8,1.7l-0.5,0.5c-0.3,0.3-0.3,0.5-0.5,0.7
							c-0.3,0.3-0.5,0.8-0.8,1.3c-0.2,1-0.2,2,0,3c0.3,0.8,0.6,1.8,1.5,2.3l0.2,0.2c0.2,0.3,0.2,0.2,0.3,0.3c0.2,0,0.2,0.2,0.5,0.3
							c0.3,0.2,0.8,0.3,1.2,0.3c1.8,0.2,3.4-0.8,3.7-2c0.3-0.5,0.3-1.3,0.1-1.8c-0.1-0.7-0.5-0.8-0.8-1.3c-0.3-0.2-0.7-0.3-1.2-0.2
							c-0.3-0.2-0.5,0.2-0.8,0.2c-0.3,0.3-0.5,0.3-0.5,0.3s0.2,0,0.6-0.2c0.5-0.2,0.9-0.3,1.5,0.3c0.5,0.5,0.7,1.3,0.2,2.2
							c-0.3,0.8-1.5,1.3-2.5,1c-0.3,0-0.5-0.2-0.7-0.2c0-0.2-0.3-0.3-0.3-0.3l-0.2-0.2l-0.2-0.2c-0.5-0.5-0.7-1-0.8-1.7
							c0-1.2,0.3-2.3,1.5-3.3c1-0.8,2.5-1.2,3.8-0.8c1.3,0.2,2.7,1.2,3.5,2.5c1,1.2,1.3,2.8,1.2,4.3c0.2,0.3,0,0.7-0.2,1.2
							c0,0.3,0,0.7-0.2,1c-0.2,0.3-0.3,0.7-0.5,1l-0.7,1c-0.5,0.5-1.2,1-1.7,1.5c-0.2,0.2-0.3,0.3-0.7,0.5h-12.6
							c-0.5-0.2-0.6-0.3-0.6-0.3s0.1,0.2,0.3,0.3H270.2h-47.8H25.2c0.2-0.2,0.3-0.3,0.3-0.3s-0.2,0.2-0.7,0.3H12.2
							c-0.3-0.2-0.5-0.3-0.7-0.5c-0.5-0.5-1.2-1-1.7-1.5l-0.7-1c-0.2-0.3-0.3-0.7-0.5-1c-0.2-0.3-0.2-0.7-0.2-1
							c-0.2-0.5-0.3-0.8-0.2-1.2c-0.2-1.5,0.2-3.1,1.2-4.3c0.8-1.3,2.2-2.3,3.5-2.5c1.3-0.3,2.8,0,3.8,0.8c1.2,1,1.5,2.2,1.5,3.3
							c-0.2,0.7-0.3,1.2-0.8,1.7l-0.2,0.2l-0.2,0.2c0,0-0.3,0.2-0.3,0.3c-0.2,0-0.3,0.2-0.7,0.2c-1,0.3-2.2-0.2-2.5-1
							c-0.5-0.8-0.3-1.7,0.2-2.2c0.7-0.7,1-0.5,1.5-0.3c0.5,0.2,0.7,0.2,0.7,0.2s-0.2,0-0.5-0.3c-0.3,0-0.5-0.3-0.8-0.2
							c-0.5-0.2-0.8,0-1.2,0.2c-0.3,0.5-0.7,0.7-0.8,1.3c-0.2,0.5-0.2,1.3,0.2,1.8c0.3,1.2,1.8,2.2,3.7,2c0.3,0,0.8-0.2,1.2-0.3
							c0.3-0.2,0.3-0.3,0.5-0.3c0.2-0.2,0.2,0,0.3-0.3l0.2-0.2c0.8-0.5,1.2-1.5,1.5-2.3c0.2-1,0.2-2,0-3c-0.3-0.5-0.5-1-0.8-1.3
							c-0.2-0.2-0.2-0.3-0.5-0.7l-0.5-0.5c-1.5-1.3-3.7-2.2-5.8-1.7c-2.3,0.3-4,1.8-5.2,3.5c-1.2,1.8-1.7,4-1.5,6
							c0,0.5,0.2,1,0.2,1.5c0.2,0.5,0.3,1,0.5,1.5c0.3,0.5,0.5,1,0.8,1.3l0.8,1c0.7,0.8,1.3,1.3,2,1.8c0.5,0.3,1,0.5,1.5,0.8v0.2
							h210.7h47.8h137.3v-0.2c0.5-0.3,1-0.5,1.5-0.8c0.6-0.5,1.3-1,2-1.8l0.8-1c0.3-0.3,0.5-0.8,0.8-1.3c0.2-0.5,0.3-1,0.5-1.5
							c0-0.5,0.2-1,0.2-1.5C413.5,113.7,413,111.5,411.8,109.7z"/>
						<rect y="127.2" class="st0" width="425.1" height="2.1"/>
					</g>
					<g>
						<path class="st0" d="M50.1,214.5c0.9,1.4,2.3,2.6,4.2,2.8c1.8,0.4,3.5-0.3,4.7-1.4l0.4-0.4c0.3-0.3,0.3-0.4,0.4-0.5
							c0.3-0.3,0.4-0.7,0.7-1.1c0.1-0.8,0.1-1.6,0-2.4c-0.3-0.7-0.5-1.5-1.2-1.9l-0.1-0.1c-0.2-0.3-0.2-0.1-0.3-0.3
							c-0.1,0-0.1-0.1-0.4-0.2c-0.3-0.1-0.7-0.3-0.9-0.3c-1.5-0.1-2.7,0.7-3,1.6c-0.3,0.4-0.3,1.1-0.2,1.5c0.2,0.5,0.4,0.7,0.7,1.1
							c0.3,0.1,0.5,0.3,1,0.1c0.3,0.1,0.4-0.1,0.6-0.1c0.3-0.3,0.4-0.3,0.4-0.3s-0.1,0-0.5,0.1c-0.4,0.1-0.7,0.3-1.2-0.3
							c-0.4-0.4-0.5-1.1-0.1-1.8c0.3-0.7,1.2-1.1,2-0.8c0.3,0,0.4,0.1,0.5,0.1c0,0.2,0.3,0.3,0.3,0.3l0.1,0.1l0.2,0.1
							c0.4,0.4,0.5,0.8,0.6,1.4c0,0.9-0.3,1.9-1.2,2.7c-0.8,0.7-2,1-3.1,0.7c-1.1-0.1-2.2-0.9-2.8-2c-0.8-1-1.1-2.3-0.9-3.5
							c-0.1-0.3,0-0.5,0.1-0.9c0-0.3,0-0.5,0.1-0.8c0.1-0.3,0.3-0.5,0.4-0.8l0.5-0.8c0.4-0.4,0.9-0.8,1.4-1.2
							c0.1-0.1,0.3-0.2,0.5-0.4h10.3c0.4,0.2,0.5,0.3,0.5,0.3s-0.1-0.1-0.3-0.3h101h38.9h160.8c-0.1,0.2-0.3,0.3-0.3,0.3
							s0.1-0.1,0.5-0.3h10.3c0.3,0.2,0.4,0.3,0.5,0.4c0.4,0.4,1,0.8,1.4,1.2l0.5,0.8c0.1,0.3,0.3,0.5,0.4,0.8
							c0.1,0.3,0.1,0.5,0.1,0.8c0.1,0.4,0.3,0.7,0.1,0.9c0.1,1.2-0.1,2.6-1,3.5c-0.6,1.1-1.8,1.9-2.8,2c-1.1,0.3-2.3,0-3.1-0.7
							c-0.9-0.8-1.2-1.7-1.2-2.7c0.1-0.6,0.3-1,0.7-1.4l0.1-0.1l0.1-0.1c0,0,0.3-0.1,0.3-0.3c0.1,0,0.2-0.1,0.5-0.1
							c0.8-0.3,1.8,0.1,2,0.8c0.4,0.7,0.3,1.4-0.1,1.8c-0.6,0.5-0.8,0.4-1.2,0.3c-0.4-0.1-0.5-0.1-0.5-0.1s0.1,0,0.4,0.3
							c0.3,0,0.4,0.3,0.7,0.1c0.4,0.1,0.7,0,0.9-0.1c0.3-0.4,0.5-0.6,0.7-1.1c0.1-0.4,0.1-1.1-0.1-1.5c-0.2-0.9-1.5-1.8-3-1.6
							c-0.2,0-0.7,0.2-0.9,0.3c-0.3,0.1-0.3,0.2-0.4,0.2c-0.1,0.1-0.1,0-0.3,0.3l-0.1,0.1c-0.7,0.4-0.9,1.2-1.2,1.9
							c-0.1,0.8-0.1,1.6,0,2.4c0.3,0.4,0.4,0.8,0.7,1.1c0.1,0.1,0.1,0.3,0.4,0.5l0.4,0.4c1.2,1.1,3,1.8,4.7,1.4
							c1.9-0.3,3.3-1.5,4.2-2.8c0.9-1.5,1.4-3.2,1.2-4.9c0-0.4-0.1-0.8-0.1-1.2c-0.1-0.4-0.3-0.8-0.4-1.2c-0.3-0.4-0.4-0.8-0.7-1.1
							l-0.7-0.8c-0.6-0.7-1.1-1.1-1.6-1.5c-0.4-0.3-0.8-0.4-1.2-0.7v-0.2H204.5h-38.9h-112v0.2c-0.4,0.3-0.8,0.4-1.2,0.7
							c-0.5,0.4-1.1,0.8-1.6,1.5l-0.7,0.8c-0.3,0.3-0.4,0.7-0.7,1.1c-0.1,0.4-0.3,0.8-0.4,1.2c0,0.4-0.2,0.8-0.2,1.2
							C48.7,211.2,49.1,213,50.1,214.5z"/>
						<rect x="39.3" y="198.5" class="st0" width="346.6" height="1.7"/>
					</g>
				</g>
			</g>
		</g>
	</g>
</g>
<rect x="6.1" y="151.4" class="st1" width="419.2" height="47.1"/>
<text transform="matrix(1 0 0 1 99.4795 177.4024)" class="st0 st2 st3">Broderie  D’Or</text>
</svg>
